<svg xmlns="http://www.w3.org/2000/svg" viewBox="0 0 100 150"><path d="M86.652,62.053H23.25l9.608-2.047.852-.181L50.258,56.3l1.586-.338L86.862,48.5,84.4,36.962l-9.949,2.119h0l-9.317,1.985-8.082,1.722h0L47.938,44.73l-8.283,1.764-9.117,1.942L22.255,50.2h0l-10,2.13-.754.161,1.229,5.77,1.229,5.77v49.007H88.5V62.053ZM75.716,64.341h9.322l-5.1,7.223H70.618Zm-17.79,0h9.322l-5.1,7.223H52.828Zm-17.79,0h9.321l-5.1,7.223H35.038ZM76.51,40.983l6.492,6-9.117,1.942-6.492-6Zm-17.4,3.706,6.492,6-9.117,1.942-6.491-6ZM41.711,48.4l6.491,6L39.085,56.34l-6.491-6ZM24.311,52.1l6.491,6-9.117,1.942-6.491-6ZM22.346,64.341h9.321l-5.1,7.223H17.248Z" fill="#fff"/></svg>