<svg xmlns="http://www.w3.org/2000/svg" viewBox="0 0 130 60"><path d="M25.093,23.153,31.047,8.3h7.475V31.757H33.075V17.036L27.2,31.757h-4.22L17.11,17.036V31.757H11.663V8.3h7.475Z" fill="#fff"/><path d="M66.539,20.029c0,6.559-3.86,12.383-12.693,12.383S41.153,26.588,41.153,20.029,45.013,7.646,53.846,7.646,66.539,13.47,66.539,20.029Zm-19.776,0c0,4.318,2.176,7.655,7.083,7.655s7.082-3.337,7.082-7.655-2.175-7.655-7.082-7.655S46.763,15.71,46.763,20.029Z" fill="#fff"/><path d="M78.132,24.887,84.332,8.3H90.2L80.831,31.757H75.269L66.06,8.3h5.872Z" fill="#fff"/><path d="M92.014,8.3h5.447V31.757H92.014Z" fill="#fff"/><path d="M117.47,17.428v4.728H106.183V27.03h12.154v4.727h-17.6V8.3h17.437v4.727H106.183v4.4Z" fill="#fff"/><path d="M21.409,41.512v2.126h-3.5v8.421H15.459V43.638h-3.5V41.512Z" fill="#fff"/><path d="M37.486,41.512h2.449V52.059H37.486Z" fill="#fff"/><path d="M62.5,48.19l2.677-6.678h3.361V52.059H66.084V45.44l-2.64,6.619h-1.9l-2.64-6.619v6.619h-2.45V41.512h3.362Z" fill="#fff"/><path d="M92.573,45.616v2.126H87.5v2.192h5.465v2.125H85.049V41.512h7.84v2.126H87.5v1.978Z" fill="#fff"/><path d="M116.218,44.006a6.169,6.169,0,0,0-2.9-.662c-1.081,0-1.611.375-1.611,1.022,0,.706.684,1.052,1.964,1.309,2.67.567,4.163,1.471,4.163,3.457,0,2.2-1.78,3.222-4.516,3.222a6.879,6.879,0,0,1-4.428-1.266l1.192-1.728a6.166,6.166,0,0,0,3.236.868c1.479,0,2.037-.405,2.037-1.1s-.706-.986-2.147-1.28c-2.795-.588-3.979-1.78-3.979-3.486,0-1.618,1.059-3.148,4.089-3.148a7.266,7.266,0,0,1,4.089,1.059Z" fill="#fff"/></svg>